<svg width="190" height="166" viewBox="0 0 190 166" fill="none" xmlns="http://www.w3.org/2000/svg">
<rect x="48" width="142" height="166" rx="11" fill="url(#paint0_linear_0_1)"/>
<g filter="url(#filter0_d_0_1)">
<rect x="3" y="35" width="96" height="96" rx="9" fill="#EF9C3A"/>
</g>
<path d="M43.4639 89.7192C43.4639 94.8755 42.2643 98.8232 39.8652 101.562C37.484 104.302 34.0286 105.671 29.499 105.671C27.4759 105.671 25.605 105.322 23.8862 104.624V96.4868C25.3722 97.6147 27.0373 98.1787 28.8813 98.1787C32.8381 98.1787 34.8164 95.2425 34.8164 89.3701V66.4893H43.4639V89.7192ZM50.124 103.523V94.9292C51.6816 96.2362 53.3735 97.2209 55.1997 97.8833C57.0259 98.5278 58.87 98.8501 60.7319 98.8501C61.8241 98.8501 62.7729 98.7516 63.5786 98.5547C64.4022 98.3577 65.0825 98.0892 65.6196 97.749C66.1746 97.391 66.5864 96.9792 66.855 96.5137C67.1235 96.0303 67.2578 95.5111 67.2578 94.9561C67.2578 94.2041 67.043 93.5327 66.6133 92.9419C66.1836 92.3511 65.5928 91.805 64.8408 91.3037C64.1068 90.8024 63.2295 90.319 62.209 89.8535C61.1885 89.388 60.0874 88.9136 58.9058 88.4302C55.8979 87.1769 53.651 85.6462 52.165 83.8379C50.6969 82.0296 49.9629 79.8454 49.9629 77.2852C49.9629 75.2799 50.3657 73.5612 51.1714 72.1289C51.9771 70.6787 53.0692 69.4881 54.4478 68.5571C55.8442 67.6261 57.4556 66.9458 59.2817 66.5161C61.1079 66.0685 63.0415 65.8447 65.0825 65.8447C67.0877 65.8447 68.8602 65.9701 70.3999 66.2207C71.9575 66.4535 73.3898 66.8205 74.6968 67.3218V75.3516C74.0522 74.904 73.3451 74.5101 72.5752 74.1699C71.8232 73.8298 71.0444 73.5522 70.2388 73.3374C69.4331 73.1047 68.6274 72.9346 67.8218 72.8271C67.034 72.7197 66.2821 72.666 65.5659 72.666C64.5812 72.666 63.686 72.7645 62.8804 72.9614C62.0747 73.1405 61.3944 73.4001 60.8394 73.7402C60.2843 74.0804 59.8547 74.4922 59.5503 74.9756C59.2459 75.4411 59.0938 75.9692 59.0938 76.5601C59.0938 77.2046 59.2638 77.7865 59.604 78.3057C59.9442 78.807 60.4276 79.2904 61.0542 79.7559C61.6808 80.2035 62.4417 80.651 63.3369 81.0986C64.2321 81.5283 65.2437 81.9759 66.3716 82.4414C67.9113 83.0859 69.2899 83.7752 70.5073 84.5093C71.7427 85.2254 72.799 86.04 73.6763 86.9531C74.5535 87.8662 75.2249 88.9136 75.6904 90.0952C76.1559 91.259 76.3887 92.6196 76.3887 94.1772C76.3887 96.3257 75.9769 98.134 75.1533 99.6021C74.3477 101.052 73.2466 102.234 71.8501 103.147C70.4536 104.042 68.8244 104.687 66.9624 105.081C65.1183 105.474 63.1668 105.671 61.1079 105.671C58.9953 105.671 56.9811 105.492 55.0654 105.134C53.1676 104.776 51.5205 104.239 50.124 103.523Z" fill="#932323" fill-opacity="0.86"/>
<path d="M152 125H190V155C190 161.075 185.075 166 179 166H152V125Z" fill="#EF3A7B" fill-opacity="0.06"/>
<rect x="152" y="83" width="38" height="42" fill="#EF3A7B" fill-opacity="0.25"/>
<rect x="152" y="41" width="38" height="42" fill="#EF3A7B" fill-opacity="0.5"/>
<path d="M152 0H179C185.075 0 190 4.92487 190 11V41.5H152V0Z" fill="#EF3A7B" fill-opacity="0.9"/>
<defs>
<filter id="filter0_d_0_1" x="0.7" y="34.7" width="104.6" height="104.6" filterUnits="userSpaceOnUse" color-interpolation-filters="sRGB">
<feFlood flood-opacity="0" result="BackgroundImageFix"/>
<feColorMatrix in="SourceAlpha" type="matrix" values="0 0 0 0 0 0 0 0 0 0 0 0 0 0 0 0 0 0 127 0" result="hardAlpha"/>
<feMorphology radius="0.3" operator="dilate" in="SourceAlpha" result="effect1_dropShadow_0_1"/>
<feOffset dx="2" dy="4"/>
<feGaussianBlur stdDeviation="2"/>
<feComposite in2="hardAlpha" operator="out"/>
<feColorMatrix type="matrix" values="0 0 0 0 0 0 0 0 0 0 0 0 0 0 0 0 0 0 0.25 0"/>
<feBlend mode="normal" in2="BackgroundImageFix" result="effect1_dropShadow_0_1"/>
<feBlend mode="normal" in="SourceGraphic" in2="effect1_dropShadow_0_1" result="shape"/>
</filter>
<linearGradient id="paint0_linear_0_1" x1="41.5" y1="-22" x2="199" y2="208.5" gradientUnits="userSpaceOnUse">
<stop stop-color="#FBD52D"/>
<stop offset="1" stop-color="#EF3A7B"/>
</linearGradient>
</defs>
</svg>
