<svg width="173" height="151" viewBox="0 0 173 151" fill="none" xmlns="http://www.w3.org/2000/svg">
<rect x="44" width="129" height="151" rx="11" fill="url(#paint0_linear_0_1)"/>
<g filter="url(#filter0_d_0_1)">
<rect x="3" y="32" width="87" height="87" rx="9" fill="#EF9C3A"/>
</g>
<path d="M39.627 79.3311C39.627 83.2686 38.7109 86.2832 36.8789 88.375C35.0605 90.4668 32.4219 91.5127 28.9629 91.5127C27.418 91.5127 25.9893 91.2461 24.6768 90.7129V84.499C25.8115 85.3604 27.083 85.791 28.4912 85.791C31.5127 85.791 33.0234 83.5488 33.0234 79.0645V61.5918H39.627V79.3311ZM44.7129 89.8721V83.3096C45.9023 84.3076 47.1943 85.0596 48.5889 85.5654C49.9834 86.0576 51.3916 86.3037 52.8135 86.3037C53.6475 86.3037 54.3721 86.2285 54.9873 86.0781C55.6162 85.9277 56.1357 85.7227 56.5459 85.4629C56.9697 85.1895 57.2842 84.875 57.4893 84.5195C57.6943 84.1504 57.7969 83.7539 57.7969 83.3301C57.7969 82.7559 57.6328 82.2432 57.3047 81.792C56.9766 81.3408 56.5254 80.9238 55.9512 80.541C55.3906 80.1582 54.7207 79.7891 53.9414 79.4336C53.1621 79.0781 52.3213 78.7158 51.4189 78.3467C49.1221 77.3896 47.4062 76.2207 46.2715 74.8398C45.1504 73.459 44.5898 71.791 44.5898 69.8359C44.5898 68.3047 44.8975 66.9922 45.5127 65.8984C46.1279 64.791 46.9619 63.8818 48.0146 63.1709C49.0811 62.46 50.3115 61.9404 51.7061 61.6123C53.1006 61.2705 54.5771 61.0996 56.1357 61.0996C57.667 61.0996 59.0205 61.1953 60.1963 61.3867C61.3857 61.5645 62.4795 61.8447 63.4775 62.2275V68.3594C62.9854 68.0176 62.4453 67.7168 61.8574 67.457C61.2832 67.1973 60.6885 66.9854 60.0732 66.8213C59.458 66.6436 58.8428 66.5137 58.2275 66.4316C57.626 66.3496 57.0518 66.3086 56.5049 66.3086C55.7529 66.3086 55.0693 66.3838 54.4541 66.5342C53.8389 66.6709 53.3193 66.8691 52.8955 67.1289C52.4717 67.3887 52.1436 67.7031 51.9111 68.0723C51.6787 68.4277 51.5625 68.8311 51.5625 69.2822C51.5625 69.7744 51.6924 70.2188 51.9521 70.6152C52.2119 70.998 52.5811 71.3672 53.0596 71.7227C53.5381 72.0645 54.1191 72.4062 54.8027 72.748C55.4863 73.0762 56.2588 73.418 57.1201 73.7734C58.2959 74.2656 59.3486 74.792 60.2783 75.3525C61.2217 75.8994 62.0283 76.5215 62.6982 77.2188C63.3682 77.916 63.8809 78.7158 64.2363 79.6182C64.5918 80.5068 64.7695 81.5459 64.7695 82.7354C64.7695 84.376 64.4551 85.7568 63.8262 86.8779C63.2109 87.9854 62.3701 88.8877 61.3037 89.585C60.2373 90.2686 58.9932 90.7607 57.5713 91.0615C56.1631 91.3623 54.6729 91.5127 53.1006 91.5127C51.4873 91.5127 49.9492 91.376 48.4863 91.1025C47.0371 90.8291 45.7793 90.4189 44.7129 89.8721Z" fill="#932323" fill-opacity="0.86"/>
<path d="M138 114H173V140C173 146.075 168.075 151 162 151H138V114Z" fill="#EF3A7B" fill-opacity="0.06"/>
<rect x="138" y="76" width="35" height="38" fill="#EF3A7B" fill-opacity="0.25"/>
<rect x="138" y="37" width="35" height="39" fill="#EF3A7B" fill-opacity="0.5"/>
<path d="M138 0H162C168.075 0 173 4.92487 173 11V38H138V0Z" fill="#EF3A7B" fill-opacity="0.9"/>
<defs>
<filter id="filter0_d_0_1" x="0.7" y="31.7" width="95.6" height="95.6" filterUnits="userSpaceOnUse" color-interpolation-filters="sRGB">
<feFlood flood-opacity="0" result="BackgroundImageFix"/>
<feColorMatrix in="SourceAlpha" type="matrix" values="0 0 0 0 0 0 0 0 0 0 0 0 0 0 0 0 0 0 127 0" result="hardAlpha"/>
<feMorphology radius="0.3" operator="dilate" in="SourceAlpha" result="effect1_dropShadow_0_1"/>
<feOffset dx="2" dy="4"/>
<feGaussianBlur stdDeviation="2"/>
<feComposite in2="hardAlpha" operator="out"/>
<feColorMatrix type="matrix" values="0 0 0 0 0 0 0 0 0 0 0 0 0 0 0 0 0 0 0.25 0"/>
<feBlend mode="normal" in2="BackgroundImageFix" result="effect1_dropShadow_0_1"/>
<feBlend mode="normal" in="SourceGraphic" in2="effect1_dropShadow_0_1" result="shape"/>
</filter>
<linearGradient id="paint0_linear_0_1" x1="38.0951" y1="-20.0121" x2="181.431" y2="189.485" gradientUnits="userSpaceOnUse">
<stop stop-color="#FBD52D"/>
<stop offset="1" stop-color="#EF3A7B"/>
</linearGradient>
</defs>
</svg>
