<svg width="140" height="122" viewBox="0 0 140 122" fill="none" xmlns="http://www.w3.org/2000/svg">
<rect x="36" width="104" height="122" rx="11" fill="url(#paint0_linear_0_1)"/>
<g filter="url(#filter0_d_0_1)">
<rect x="2" y="26" width="71" height="70" rx="9" fill="#EF9C3A"/>
</g>
<path d="M111 92H140V111C140 117.075 135.075 122 129 122H111V92Z" fill="#EF3A7B" fill-opacity="0.06"/>
<rect x="111" y="61" width="29" height="31" fill="#EF3A7B" fill-opacity="0.25"/>
<rect x="111" y="30" width="29" height="31" fill="#EF3A7B" fill-opacity="0.5"/>
<path d="M111 0H129C135.075 0 140 4.92487 140 11V31H111V0Z" fill="#EF3A7B" fill-opacity="0.9"/>
<path d="M32.1387 65.4424C32.1387 69.0049 31.3099 71.7324 29.6523 73.625C28.0072 75.5176 25.6198 76.4639 22.4902 76.4639C21.0924 76.4639 19.7998 76.2227 18.6123 75.7402V70.1182C19.639 70.8975 20.7894 71.2871 22.0635 71.2871C24.7972 71.2871 26.1641 69.2585 26.1641 65.2012V49.3926H32.1387V65.4424ZM36.7402 74.9795V69.042C37.8164 69.945 38.9854 70.6253 40.2471 71.083C41.5088 71.5283 42.7829 71.751 44.0693 71.751C44.8239 71.751 45.4795 71.6829 46.0361 71.5469C46.6051 71.4108 47.0752 71.2253 47.4463 70.9902C47.8298 70.7428 48.1143 70.4583 48.2998 70.1367C48.4854 69.8027 48.5781 69.444 48.5781 69.0605C48.5781 68.541 48.4297 68.0771 48.1328 67.6689C47.8359 67.2607 47.4277 66.8835 46.9082 66.5371C46.401 66.1908 45.7949 65.8568 45.0898 65.5352C44.3848 65.2135 43.624 64.8857 42.8076 64.5518C40.7295 63.6859 39.1771 62.6283 38.1504 61.3789C37.1361 60.1296 36.6289 58.6204 36.6289 56.8516C36.6289 55.4661 36.9072 54.2786 37.4639 53.2891C38.0205 52.2871 38.7751 51.4645 39.7275 50.8213C40.6924 50.1781 41.8057 49.708 43.0674 49.4111C44.3291 49.1019 45.665 48.9473 47.0752 48.9473C48.4606 48.9473 49.6852 49.0339 50.749 49.207C51.8252 49.3678 52.8148 49.6214 53.7178 49.9678V55.5156C53.2725 55.2064 52.7839 54.9342 52.252 54.6992C51.7324 54.4642 51.1943 54.2725 50.6377 54.124C50.0811 53.9632 49.5244 53.8457 48.9678 53.7715C48.4235 53.6973 47.904 53.6602 47.4092 53.6602C46.7288 53.6602 46.1104 53.7282 45.5537 53.8643C44.9971 53.988 44.527 54.1673 44.1436 54.4023C43.7601 54.6374 43.4632 54.9219 43.2529 55.2559C43.0426 55.5775 42.9375 55.9424 42.9375 56.3506C42.9375 56.7959 43.055 57.1979 43.29 57.5566C43.5251 57.903 43.859 58.237 44.292 58.5586C44.7249 58.8678 45.2507 59.1771 45.8691 59.4863C46.4876 59.7832 47.1865 60.0924 47.9658 60.4141C49.0296 60.8594 49.9821 61.3356 50.8232 61.8428C51.6768 62.3376 52.4066 62.9004 53.0127 63.5312C53.6188 64.1621 54.0827 64.8857 54.4043 65.7021C54.7259 66.5062 54.8867 67.4463 54.8867 68.5225C54.8867 70.0068 54.6022 71.2562 54.0332 72.2705C53.4766 73.2725 52.7158 74.0889 51.751 74.7197C50.7861 75.3382 49.6605 75.7835 48.374 76.0557C47.0999 76.3278 45.7516 76.4639 44.3291 76.4639C42.8695 76.4639 41.4779 76.3402 40.1543 76.0928C38.8431 75.8454 37.7051 75.4743 36.7402 74.9795Z" fill="#932323" fill-opacity="0.85"/>
<defs>
<filter id="filter0_d_0_1" x="0" y="24" width="75" height="74" filterUnits="userSpaceOnUse" color-interpolation-filters="sRGB">
<feFlood flood-opacity="0" result="BackgroundImageFix"/>
<feColorMatrix in="SourceAlpha" type="matrix" values="0 0 0 0 0 0 0 0 0 0 0 0 0 0 0 0 0 0 127 0" result="hardAlpha"/>
<feOffset/>
<feGaussianBlur stdDeviation="1"/>
<feComposite in2="hardAlpha" operator="out"/>
<feColorMatrix type="matrix" values="0 0 0 0 0 0 0 0 0 0 0 0 0 0 0 0 0 0 0.2 0"/>
<feBlend mode="normal" in2="BackgroundImageFix" result="effect1_dropShadow_0_1"/>
<feBlend mode="normal" in="SourceGraphic" in2="effect1_dropShadow_0_1" result="shape"/>
</filter>
<linearGradient id="paint0_linear_0_1" x1="31.2394" y1="-16.1687" x2="147.138" y2="152.86" gradientUnits="userSpaceOnUse">
<stop stop-color="#FBD52D"/>
<stop offset="1" stop-color="#EF3A7B"/>
</linearGradient>
</defs>
</svg>
