<svg width="152" height="132" viewBox="0 0 152 132" fill="none" xmlns="http://www.w3.org/2000/svg">
<rect x="39" width="113" height="132" rx="11" fill="url(#paint0_linear_0_1)"/>
<g filter="url(#filter0_d_0_1)">
<rect x="3" y="28" width="76" height="76" rx="9" fill="#EF9C3A"/>
</g>
<path d="M34.1387 70.4424C34.1387 74.0049 33.3099 76.7324 31.6523 78.625C30.0072 80.5176 27.6198 81.4639 24.4902 81.4639C23.0924 81.4639 21.7998 81.2227 20.6123 80.7402V75.1182C21.639 75.8975 22.7894 76.2871 24.0635 76.2871C26.7972 76.2871 28.1641 74.2585 28.1641 70.2012V54.3926H34.1387V70.4424ZM38.7402 79.9795V74.042C39.8164 74.945 40.9854 75.6253 42.2471 76.083C43.5088 76.5283 44.7829 76.751 46.0693 76.751C46.8239 76.751 47.4795 76.6829 48.0361 76.5469C48.6051 76.4108 49.0752 76.2253 49.4463 75.9902C49.8298 75.7428 50.1143 75.4583 50.2998 75.1367C50.4854 74.8027 50.5781 74.444 50.5781 74.0605C50.5781 73.541 50.4297 73.0771 50.1328 72.6689C49.8359 72.2607 49.4277 71.8835 48.9082 71.5371C48.401 71.1908 47.7949 70.8568 47.0898 70.5352C46.3848 70.2135 45.624 69.8857 44.8076 69.5518C42.7295 68.6859 41.1771 67.6283 40.1504 66.3789C39.1361 65.1296 38.6289 63.6204 38.6289 61.8516C38.6289 60.4661 38.9072 59.2786 39.4639 58.2891C40.0205 57.2871 40.7751 56.4645 41.7275 55.8213C42.6924 55.1781 43.8057 54.708 45.0674 54.4111C46.3291 54.1019 47.665 53.9473 49.0752 53.9473C50.4606 53.9473 51.6852 54.0339 52.749 54.207C53.8252 54.3678 54.8148 54.6214 55.7178 54.9678V60.5156C55.2725 60.2064 54.7839 59.9342 54.252 59.6992C53.7324 59.4642 53.1943 59.2725 52.6377 59.124C52.0811 58.9632 51.5244 58.8457 50.9678 58.7715C50.4235 58.6973 49.904 58.6602 49.4092 58.6602C48.7288 58.6602 48.1104 58.7282 47.5537 58.8643C46.9971 58.988 46.527 59.1673 46.1436 59.4023C45.7601 59.6374 45.4632 59.9219 45.2529 60.2559C45.0426 60.5775 44.9375 60.9424 44.9375 61.3506C44.9375 61.7959 45.055 62.1979 45.29 62.5566C45.5251 62.903 45.859 63.237 46.292 63.5586C46.7249 63.8678 47.2507 64.1771 47.8691 64.4863C48.4876 64.7832 49.1865 65.0924 49.9658 65.4141C51.0296 65.8594 51.9821 66.3356 52.8232 66.8428C53.6768 67.3376 54.4066 67.9004 55.0127 68.5312C55.6188 69.1621 56.0827 69.8857 56.4043 70.7021C56.7259 71.5062 56.8867 72.4463 56.8867 73.5225C56.8867 75.0068 56.6022 76.2562 56.0332 77.2705C55.4766 78.2725 54.7158 79.0889 53.751 79.7197C52.7861 80.3382 51.6605 80.7835 50.374 81.0557C49.0999 81.3278 47.7516 81.4639 46.3291 81.4639C44.8695 81.4639 43.4779 81.3402 42.1543 81.0928C40.8431 80.8454 39.7051 80.4743 38.7402 79.9795Z" fill="#932323" fill-opacity="0.86"/>
<path d="M121 100H152V121C152 127.075 147.075 132 141 132H121V100Z" fill="#EF3A7B" fill-opacity="0.06"/>
<rect x="121" y="66" width="31" height="34" fill="#EF3A7B" fill-opacity="0.25"/>
<rect x="121" y="32" width="31" height="34" fill="#EF3A7B" fill-opacity="0.5"/>
<path d="M121 0H141C147.075 0 152 4.92487 152 11V33H121V0Z" fill="#EF3A7B" fill-opacity="0.9"/>
<defs>
<filter id="filter0_d_0_1" x="0.7" y="27.7" width="84.6" height="84.6" filterUnits="userSpaceOnUse" color-interpolation-filters="sRGB">
<feFlood flood-opacity="0" result="BackgroundImageFix"/>
<feColorMatrix in="SourceAlpha" type="matrix" values="0 0 0 0 0 0 0 0 0 0 0 0 0 0 0 0 0 0 127 0" result="hardAlpha"/>
<feMorphology radius="0.3" operator="dilate" in="SourceAlpha" result="effect1_dropShadow_0_1"/>
<feOffset dx="2" dy="4"/>
<feGaussianBlur stdDeviation="2"/>
<feComposite in2="hardAlpha" operator="out"/>
<feColorMatrix type="matrix" values="0 0 0 0 0 0 0 0 0 0 0 0 0 0 0 0 0 0 0.25 0"/>
<feBlend mode="normal" in2="BackgroundImageFix" result="effect1_dropShadow_0_1"/>
<feBlend mode="normal" in="SourceGraphic" in2="effect1_dropShadow_0_1" result="shape"/>
</filter>
<linearGradient id="paint0_linear_0_1" x1="33.8275" y1="-17.494" x2="159.034" y2="165.882" gradientUnits="userSpaceOnUse">
<stop stop-color="#FBD52D"/>
<stop offset="1" stop-color="#EF3A7B"/>
</linearGradient>
</defs>
</svg>
